<mxfile host="Electron" agent="Mozilla/5.0 (Windows NT 10.0; Win64; x64) AppleWebKit/537.36 (KHTML, like Gecko) draw.io/24.7.8 Chrome/128.0.6613.36 Electron/32.0.1 Safari/537.36" version="24.7.8">
  <diagram name="Page-1" id="kaqdqqSZYKlnJp2iJO48">
    <mxGraphModel dx="418" dy="278" grid="1" gridSize="10" guides="1" tooltips="1" connect="1" arrows="1" fold="1" page="1" pageScale="1" pageWidth="850" pageHeight="1100" math="0" shadow="0">
      <root>
        <mxCell id="0" />
        <mxCell id="1" parent="0" />
        <mxCell id="lJH25tL0B-NGJEuqa_83-1" style="edgeStyle=orthogonalEdgeStyle;rounded=0;orthogonalLoop=1;jettySize=auto;html=1;exitX=0.5;exitY=1;exitDx=0;exitDy=0;entryX=0.5;entryY=0;entryDx=0;entryDy=0;" edge="1" parent="1" source="lJH25tL0B-NGJEuqa_83-2" target="lJH25tL0B-NGJEuqa_83-21">
          <mxGeometry relative="1" as="geometry">
            <mxPoint x="340" y="120" as="targetPoint" />
          </mxGeometry>
        </mxCell>
        <mxCell id="lJH25tL0B-NGJEuqa_83-2" value="Delete File&lt;div&gt;#1: Pathes&lt;/div&gt;" style="shape=hexagon;perimeter=hexagonPerimeter2;whiteSpace=wrap;html=1;fixedSize=1;fontFamily=Courier New;fontSize=14;" vertex="1" parent="1">
          <mxGeometry x="240" width="200" height="80" as="geometry" />
        </mxCell>
        <mxCell id="lJH25tL0B-NGJEuqa_83-3" style="edgeStyle=orthogonalEdgeStyle;rounded=0;orthogonalLoop=1;jettySize=auto;html=1;exitX=1;exitY=0.5;exitDx=0;exitDy=0;" edge="1" parent="1" source="lJH25tL0B-NGJEuqa_83-21" target="lJH25tL0B-NGJEuqa_83-5">
          <mxGeometry relative="1" as="geometry">
            <mxPoint x="640" y="159.9310344827586" as="targetPoint" />
            <mxPoint x="450" y="170" as="sourcePoint" />
          </mxGeometry>
        </mxCell>
        <mxCell id="lJH25tL0B-NGJEuqa_83-5" value="&lt;div&gt;&lt;font style=&quot;font-size: 14px;&quot;&gt;Return&lt;/font&gt;&lt;/div&gt;&lt;font style=&quot;font-size: 14px;&quot;&gt;E_PermissionDenied&lt;/font&gt;" style="shape=parallelogram;perimeter=parallelogramPerimeter;whiteSpace=wrap;html=1;fixedSize=1;fontFamily=Courier New;fontSize=12;" vertex="1" parent="1">
          <mxGeometry x="630" y="120" width="220" height="80" as="geometry" />
        </mxCell>
        <mxCell id="lJH25tL0B-NGJEuqa_83-6" value="ELSEIF the pathes is not found" style="text;html=1;align=center;verticalAlign=middle;whiteSpace=wrap;rounded=0;fontFamily=Courier New;fontSize=14;" vertex="1" parent="1">
          <mxGeometry x="460" y="245" width="150" height="30" as="geometry" />
        </mxCell>
        <mxCell id="lJH25tL0B-NGJEuqa_83-9" value="@1: &#39;Pathes[-2]&#39; cluster number" style="rounded=0;whiteSpace=wrap;html=1;fontFamily=Courier New;fontSize=14;" vertex="1" parent="1">
          <mxGeometry y="275" width="200" height="40" as="geometry" />
        </mxCell>
        <mxCell id="lJH25tL0B-NGJEuqa_83-40" style="edgeStyle=orthogonalEdgeStyle;rounded=0;orthogonalLoop=1;jettySize=auto;html=1;exitX=0.5;exitY=1;exitDx=0;exitDy=0;entryX=0;entryY=0.5;entryDx=0;entryDy=0;" edge="1" parent="1" source="lJH25tL0B-NGJEuqa_83-21" target="lJH25tL0B-NGJEuqa_83-39">
          <mxGeometry relative="1" as="geometry">
            <Array as="points">
              <mxPoint x="340" y="280" />
            </Array>
          </mxGeometry>
        </mxCell>
        <mxCell id="lJH25tL0B-NGJEuqa_83-43" style="edgeStyle=orthogonalEdgeStyle;rounded=0;orthogonalLoop=1;jettySize=auto;html=1;exitX=0.5;exitY=1;exitDx=0;exitDy=0;entryX=0.5;entryY=0;entryDx=0;entryDy=0;" edge="1" parent="1" source="lJH25tL0B-NGJEuqa_83-21" target="lJH25tL0B-NGJEuqa_83-42">
          <mxGeometry relative="1" as="geometry" />
        </mxCell>
        <mxCell id="lJH25tL0B-NGJEuqa_83-50" style="edgeStyle=orthogonalEdgeStyle;rounded=0;orthogonalLoop=1;jettySize=auto;html=1;exitX=0.5;exitY=1;exitDx=0;exitDy=0;entryX=1;entryY=0.5;entryDx=0;entryDy=0;" edge="1" parent="1" source="lJH25tL0B-NGJEuqa_83-21" target="lJH25tL0B-NGJEuqa_83-9">
          <mxGeometry relative="1" as="geometry" />
        </mxCell>
        <mxCell id="lJH25tL0B-NGJEuqa_83-21" value="&lt;span style=&quot;font-size: 14px;&quot;&gt;Search the &#39;pathes[:-1]&#39;&lt;/span&gt;" style="rounded=1;whiteSpace=wrap;html=1;fontFamily=Courier New;fontSize=13;" vertex="1" parent="1">
          <mxGeometry x="240" y="130" width="200" height="60" as="geometry" />
        </mxCell>
        <mxCell id="lJH25tL0B-NGJEuqa_83-39" value="&lt;div&gt;&lt;font style=&quot;font-size: 14px;&quot;&gt;Return&lt;/font&gt;&lt;/div&gt;E_FileOrDirectoryNotFound" style="shape=parallelogram;perimeter=parallelogramPerimeter;whiteSpace=wrap;html=1;fixedSize=1;fontFamily=Courier New;fontSize=12;" vertex="1" parent="1">
          <mxGeometry x="630" y="240" width="220" height="80" as="geometry" />
        </mxCell>
        <mxCell id="lJH25tL0B-NGJEuqa_83-41" value="IF the pathes is only root directory" style="text;html=1;align=center;verticalAlign=middle;whiteSpace=wrap;rounded=0;fontFamily=Courier New;fontSize=14;" vertex="1" parent="1">
          <mxGeometry x="460" y="125" width="170" height="30" as="geometry" />
        </mxCell>
        <mxCell id="lJH25tL0B-NGJEuqa_83-45" style="edgeStyle=orthogonalEdgeStyle;rounded=0;orthogonalLoop=1;jettySize=auto;html=1;exitX=1;exitY=0.5;exitDx=0;exitDy=0;entryX=0;entryY=0.5;entryDx=0;entryDy=0;" edge="1" parent="1" source="lJH25tL0B-NGJEuqa_83-42" target="lJH25tL0B-NGJEuqa_83-44">
          <mxGeometry relative="1" as="geometry" />
        </mxCell>
        <mxCell id="lJH25tL0B-NGJEuqa_83-49" style="edgeStyle=orthogonalEdgeStyle;rounded=0;orthogonalLoop=1;jettySize=auto;html=1;exitX=0.5;exitY=1;exitDx=0;exitDy=0;entryX=0.5;entryY=0;entryDx=0;entryDy=0;" edge="1" parent="1" source="lJH25tL0B-NGJEuqa_83-42" target="lJH25tL0B-NGJEuqa_83-47">
          <mxGeometry relative="1" as="geometry" />
        </mxCell>
        <mxCell id="lJH25tL0B-NGJEuqa_83-51" style="edgeStyle=orthogonalEdgeStyle;rounded=0;orthogonalLoop=1;jettySize=auto;html=1;exitX=0.5;exitY=1;exitDx=0;exitDy=0;entryX=1;entryY=0.5;entryDx=0;entryDy=0;" edge="1" parent="1" source="lJH25tL0B-NGJEuqa_83-42" target="lJH25tL0B-NGJEuqa_83-48">
          <mxGeometry relative="1" as="geometry" />
        </mxCell>
        <mxCell id="lJH25tL0B-NGJEuqa_83-42" value="&lt;span style=&quot;font-size: 14px;&quot;&gt;Search the &#39;pathes[-1]&#39; in cluster chain &#39;@1&#39;&lt;/span&gt;" style="rounded=1;whiteSpace=wrap;html=1;fontFamily=Courier New;fontSize=13;" vertex="1" parent="1">
          <mxGeometry x="240" y="350" width="200" height="60" as="geometry" />
        </mxCell>
        <mxCell id="lJH25tL0B-NGJEuqa_83-44" value="&lt;div&gt;&lt;font style=&quot;font-size: 14px;&quot;&gt;Return&lt;/font&gt;&lt;/div&gt;E_FileOrDirectoryNotFound" style="shape=parallelogram;perimeter=parallelogramPerimeter;whiteSpace=wrap;html=1;fixedSize=1;fontFamily=Courier New;fontSize=12;" vertex="1" parent="1">
          <mxGeometry x="620" y="340" width="220" height="80" as="geometry" />
        </mxCell>
        <mxCell id="lJH25tL0B-NGJEuqa_83-46" value="IF the file is not found" style="text;html=1;align=center;verticalAlign=middle;whiteSpace=wrap;rounded=0;fontFamily=Courier New;fontSize=14;" vertex="1" parent="1">
          <mxGeometry x="460" y="344" width="150" height="30" as="geometry" />
        </mxCell>
        <mxCell id="lJH25tL0B-NGJEuqa_83-56" style="edgeStyle=orthogonalEdgeStyle;rounded=0;orthogonalLoop=1;jettySize=auto;html=1;exitX=0.5;exitY=1;exitDx=0;exitDy=0;entryX=0.5;entryY=0;entryDx=0;entryDy=0;" edge="1" parent="1" source="lJH25tL0B-NGJEuqa_83-47" target="lJH25tL0B-NGJEuqa_83-55">
          <mxGeometry relative="1" as="geometry" />
        </mxCell>
        <mxCell id="lJH25tL0B-NGJEuqa_83-61" style="edgeStyle=orthogonalEdgeStyle;rounded=0;orthogonalLoop=1;jettySize=auto;html=1;exitX=0;exitY=0.5;exitDx=0;exitDy=0;entryX=0;entryY=0.5;entryDx=0;entryDy=0;" edge="1" parent="1" source="lJH25tL0B-NGJEuqa_83-47" target="lJH25tL0B-NGJEuqa_83-60">
          <mxGeometry relative="1" as="geometry">
            <Array as="points">
              <mxPoint x="160" y="550" />
              <mxPoint x="160" y="830" />
            </Array>
          </mxGeometry>
        </mxCell>
        <mxCell id="lJH25tL0B-NGJEuqa_83-47" value="&lt;span style=&quot;font-size: 14px;&quot;&gt;Check the type of @2&lt;/span&gt;" style="rounded=1;whiteSpace=wrap;html=1;fontFamily=Courier New;fontSize=13;" vertex="1" parent="1">
          <mxGeometry x="240" y="520" width="200" height="60" as="geometry" />
        </mxCell>
        <mxCell id="lJH25tL0B-NGJEuqa_83-48" value="@2: &#39;Pathes[-1]&#39; cluster number" style="rounded=0;whiteSpace=wrap;html=1;fontFamily=Courier New;fontSize=14;" vertex="1" parent="1">
          <mxGeometry y="440" width="200" height="40" as="geometry" />
        </mxCell>
        <mxCell id="lJH25tL0B-NGJEuqa_83-52" value="ELSE" style="text;html=1;align=left;verticalAlign=middle;whiteSpace=wrap;rounded=0;fontFamily=Courier New;fontSize=14;" vertex="1" parent="1">
          <mxGeometry x="340" y="480" width="50" height="30" as="geometry" />
        </mxCell>
        <mxCell id="lJH25tL0B-NGJEuqa_83-53" value="ELSE" style="text;html=1;align=left;verticalAlign=middle;whiteSpace=wrap;rounded=0;fontFamily=Courier New;fontSize=14;" vertex="1" parent="1">
          <mxGeometry x="340" y="310" width="50" height="30" as="geometry" />
        </mxCell>
        <mxCell id="lJH25tL0B-NGJEuqa_83-54" value="&lt;div&gt;&lt;font style=&quot;font-size: 14px;&quot;&gt;Return&lt;/font&gt;&lt;/div&gt;&lt;font style=&quot;font-size: 14px;&quot;&gt;E_DirectoryNotEmpty&lt;/font&gt;" style="shape=parallelogram;perimeter=parallelogramPerimeter;whiteSpace=wrap;html=1;fixedSize=1;fontFamily=Courier New;fontSize=12;" vertex="1" parent="1">
          <mxGeometry x="620" y="650" width="220" height="80" as="geometry" />
        </mxCell>
        <mxCell id="lJH25tL0B-NGJEuqa_83-58" style="edgeStyle=orthogonalEdgeStyle;rounded=0;orthogonalLoop=1;jettySize=auto;html=1;exitX=1;exitY=0.5;exitDx=0;exitDy=0;entryX=0;entryY=0.5;entryDx=0;entryDy=0;" edge="1" parent="1" source="lJH25tL0B-NGJEuqa_83-55" target="lJH25tL0B-NGJEuqa_83-54">
          <mxGeometry relative="1" as="geometry" />
        </mxCell>
        <mxCell id="lJH25tL0B-NGJEuqa_83-63" style="edgeStyle=orthogonalEdgeStyle;rounded=0;orthogonalLoop=1;jettySize=auto;html=1;exitX=0.5;exitY=1;exitDx=0;exitDy=0;entryX=0.5;entryY=0;entryDx=0;entryDy=0;" edge="1" parent="1" source="lJH25tL0B-NGJEuqa_83-55" target="lJH25tL0B-NGJEuqa_83-60">
          <mxGeometry relative="1" as="geometry" />
        </mxCell>
        <mxCell id="lJH25tL0B-NGJEuqa_83-55" value="&lt;span style=&quot;font-size: 14px;&quot;&gt;Check directory entry in cluster chain of @2&lt;/span&gt;" style="rounded=1;whiteSpace=wrap;html=1;fontFamily=Courier New;fontSize=13;" vertex="1" parent="1">
          <mxGeometry x="240" y="660" width="200" height="60" as="geometry" />
        </mxCell>
        <mxCell id="lJH25tL0B-NGJEuqa_83-57" value="IF it is a directory" style="text;html=1;align=left;verticalAlign=middle;whiteSpace=wrap;rounded=0;fontFamily=Courier New;fontSize=14;" vertex="1" parent="1">
          <mxGeometry x="340" y="620" width="150" height="30" as="geometry" />
        </mxCell>
        <mxCell id="lJH25tL0B-NGJEuqa_83-59" value="IF the directory is not empty" style="text;html=1;align=center;verticalAlign=middle;whiteSpace=wrap;rounded=0;fontFamily=Courier New;fontSize=14;" vertex="1" parent="1">
          <mxGeometry x="460" y="655" width="150" height="30" as="geometry" />
        </mxCell>
        <mxCell id="lJH25tL0B-NGJEuqa_83-66" style="edgeStyle=orthogonalEdgeStyle;rounded=0;orthogonalLoop=1;jettySize=auto;html=1;exitX=0.5;exitY=1;exitDx=0;exitDy=0;entryX=0.5;entryY=0;entryDx=0;entryDy=0;" edge="1" parent="1" source="lJH25tL0B-NGJEuqa_83-60" target="lJH25tL0B-NGJEuqa_83-65">
          <mxGeometry relative="1" as="geometry" />
        </mxCell>
        <mxCell id="lJH25tL0B-NGJEuqa_83-60" value="&lt;span style=&quot;font-size: 14px;&quot;&gt;Mark the entry in @1&lt;/span&gt;&lt;div&gt;&lt;span style=&quot;font-size: 14px;&quot;&gt;Release the clusters&lt;/span&gt;&lt;/div&gt;&lt;div&gt;&lt;span style=&quot;font-size: 14px;&quot;&gt;Mark the free cluster&lt;/span&gt;&lt;/div&gt;" style="rounded=1;whiteSpace=wrap;html=1;fontFamily=Courier New;fontSize=13;" vertex="1" parent="1">
          <mxGeometry x="240" y="800" width="200" height="60" as="geometry" />
        </mxCell>
        <mxCell id="lJH25tL0B-NGJEuqa_83-62" value="ELSE" style="text;html=1;align=center;verticalAlign=middle;whiteSpace=wrap;rounded=0;fontFamily=Courier New;fontSize=14;" vertex="1" parent="1">
          <mxGeometry x="170" y="525" width="50" height="30" as="geometry" />
        </mxCell>
        <mxCell id="lJH25tL0B-NGJEuqa_83-64" value="ELSE" style="text;html=1;align=left;verticalAlign=middle;whiteSpace=wrap;rounded=0;fontFamily=Courier New;fontSize=14;" vertex="1" parent="1">
          <mxGeometry x="340" y="760" width="50" height="30" as="geometry" />
        </mxCell>
        <mxCell id="lJH25tL0B-NGJEuqa_83-65" value="&lt;div&gt;&lt;font&gt;Return&lt;/font&gt;&lt;/div&gt;&lt;span&gt;as success&lt;/span&gt;" style="shape=parallelogram;perimeter=parallelogramPerimeter;whiteSpace=wrap;html=1;fixedSize=1;fontFamily=Courier New;fontSize=14;" vertex="1" parent="1">
          <mxGeometry x="230" y="910" width="220" height="80" as="geometry" />
        </mxCell>
      </root>
    </mxGraphModel>
  </diagram>
</mxfile>
